<svg width="38" height="40" viewBox="0 0 38 40" fill="none" xmlns="http://www.w3.org/2000/svg">
<path fill-rule="evenodd" clip-rule="evenodd" d="M5.37182 8.02526L6.53253 6.61001L6.55761 6.73421C6.88508 8.3563 7.05002 10.0065 7.05002 11.6607V13.2746L7.36123 12.2469C7.66893 11.2308 7.79747 10.1697 7.74119 9.11028L7.5675 5.84102L10.4137 3.0214L10.8961 2.60319C11.9363 1.70156 13.1968 1.08578 14.552 0.817261C15.7538 0.579147 16.9847 0.519517 18.2042 0.640329L18.9522 0.714432L19.8135 0.856649C20.1569 0.913353 20.347 1.2831 20.1913 1.5916L19.7572 2.4516C19.3979 3.16345 19.2109 3.9484 19.2109 4.74428V5.50848C19.2109 5.89958 19.2593 6.28921 19.3551 6.66864L19.4606 7.08677C19.6348 7.77713 20.0214 8.39676 20.5667 8.85987C21.1945 9.39294 21.9941 9.68596 22.8209 9.68596H23.092L22.5746 10.4549L22.4991 10.567C22.2109 10.9954 22.0571 11.4987 22.0571 12.0135C22.0571 12.6719 22.2305 13.319 22.5603 13.8906L22.7451 14.211C22.9754 14.6103 23.2583 14.9773 23.5865 15.3024L24.0705 15.7819C24.6154 16.3217 25.2981 16.7047 26.0457 16.8898C26.6564 17.0411 27.2934 17.0561 27.9106 16.9338L28.2669 16.8632L28.6758 17.9436C28.9179 18.583 29.2953 19.1637 29.7827 19.6465C30.1497 20.0101 30.5735 20.3127 31.0377 20.5426L32.9242 21.4771L30.2421 23.521C29.7899 23.8656 29.2919 24.1469 28.7622 24.3568L26.9732 25.0657H27.7822C28.446 25.0657 29.1054 24.9597 29.7351 24.7518C30.1341 24.62 30.5118 24.4317 30.8564 24.1927L32.2561 23.2221C32.7007 22.9138 33.1172 22.5676 33.5009 22.1874L34.0664 21.6273C34.1634 21.5311 34.2951 21.4771 34.4323 21.4771H35.5938C35.8777 21.4771 36.1552 21.3939 36.3914 21.2379C36.6613 21.0596 36.9785 20.9645 37.3029 20.9645H37.5379C37.7049 20.9645 37.8403 21.0986 37.8403 21.2641V21.9898V23.9865C37.8403 24.702 37.7324 25.4134 37.52 26.0972L37.0414 27.6381C36.8845 28.1432 36.6718 28.6295 36.4072 29.0883L34.7354 31.9866L32.7847 34.4989C32.3624 35.0428 31.8636 35.5238 31.3035 35.9274L30.0346 36.8416C29.5553 37.1869 28.9896 37.3953 28.399 37.4441L26.8429 37.5725C26.4418 37.6057 26.0871 37.8436 25.907 38.2003C25.7638 38.4841 25.494 38.6846 25.1788 38.7414L22.8333 39.1638L19.7284 39.4202H18.0273C17.2664 39.4202 16.5079 39.3346 15.7665 39.1651C14.2732 38.8237 12.8259 38.3081 11.4551 37.6291L10.8873 37.3478C9.88292 36.8503 8.91686 36.2803 7.99694 35.6423L6.79127 34.8062L6.14179 34.2272C4.86121 33.0854 3.80834 31.7156 3.03786 30.189C2.43959 29.0037 2.04914 27.7261 1.8832 26.411L1.61643 24.2967L2.00829 24.8144C2.26302 25.1508 2.56847 25.4465 2.91394 25.6909L4.20385 26.6037L4.03284 26.1802C3.80248 25.6096 3.51294 25.0643 3.16888 24.5531L1.99458 23.3897C1.2402 22.6424 0.713004 21.7 0.473112 20.6702L0.251945 19.7208C0.128258 19.1898 0.128258 18.6379 0.251945 18.1069L0.752066 15.9599C0.810653 15.7084 0.896461 15.4639 1.008 15.2306L1.67339 13.839C2.66679 11.7614 3.90849 9.80948 5.37182 8.02526ZM12.6166 7.98594C12.3913 7.29459 12.5396 6.50812 13.0681 5.93792L13.3706 5.61161L13.4481 5.53483C14.2382 4.75213 15.2601 4.24015 16.3647 4.07363C17.145 3.9929 17.8471 4.54529 17.9444 5.31647L17.9508 5.36759C18.002 5.77336 17.9984 6.18408 17.94 6.58889L17.8846 6.97306C17.8085 7.50069 17.6219 8.00672 17.3368 8.45869L17.0525 8.90936C16.6936 9.47828 16.0641 9.8239 15.3869 9.82393C15.0839 9.82395 14.7851 9.75452 14.5137 9.62111C14.5272 9.64276 14.5405 9.66438 14.5535 9.68597C14.8016 10.0956 15.7326 10.3726 16.3647 10.455C16.5641 10.4809 16.7149 10.4905 16.8539 10.4994C17.1557 10.5186 17.4018 10.5342 17.968 10.7063C17.5159 10.7959 16.801 10.8631 16.1111 10.7732L16.0876 10.7701C15.4089 10.6817 14.4047 10.551 14.0361 9.9423L14.0002 9.88298C13.8245 9.59177 13.6274 9.26512 13.317 8.98081C13.2697 8.94399 13.224 8.90513 13.18 8.86434C13.0587 8.76873 12.9217 8.67975 12.7649 8.60081L12.5769 8.50599C11.8416 8.13486 10.5698 7.4929 10.1549 7.37901C10.2866 7.41515 10.5057 7.46176 10.7692 7.51782C11.322 7.63542 12.0701 7.79459 12.6166 7.98594ZM18.6934 21.9582V22.2419C18.6934 22.5901 18.833 22.924 19.0815 23.1702C19.33 23.4164 19.6671 23.5547 20.0185 23.5547H20.3528C20.624 23.5547 20.8927 23.5034 21.1446 23.4036L21.3147 23.3362C21.7982 23.1446 22.2117 22.8122 22.5006 22.383L22.6692 22.1323C22.94 21.73 23.0383 21.2377 22.9426 20.7636C22.8713 20.4107 22.6962 20.0866 22.4393 19.8321L22.3472 19.7408C21.9958 19.3927 21.5191 19.1971 21.0221 19.1971C20.5251 19.1971 20.0484 19.3927 19.697 19.7408L19.4985 19.9375C19.1423 20.2904 18.8994 20.7399 18.8006 21.2293L18.7326 21.5664C18.7065 21.6954 18.6934 21.8266 18.6934 21.9582ZM14.2948 35.718V35.8274C14.2948 36.1755 14.4344 36.5094 14.6829 36.7556C14.9314 37.0018 15.2685 37.1401 15.6199 37.1401H15.9541C16.2254 37.1401 16.4941 37.0889 16.746 36.9891L17.1829 36.8159C17.4939 36.6927 17.7648 36.487 17.9658 36.2216C18.2652 35.826 18.3883 35.3262 18.3062 34.8384L18.292 34.7543C18.2175 34.3113 17.9689 33.9104 17.6063 33.6409C17.3067 33.4184 16.9385 33.2952 16.5641 33.2952C16.1051 33.2952 15.6649 33.4758 15.3404 33.7973L15.1036 34.0319C14.9107 34.223 14.7501 34.4438 14.628 34.6856L14.4628 35.0129C14.3523 35.2318 14.2948 35.4733 14.2948 35.718ZM6.87182 23.8302L7.0054 23.4314C7.03509 23.3428 7.07115 23.2564 7.1133 23.1729C7.28008 22.8424 7.53513 22.5706 7.84416 22.3822C6.27887 22.5719 5.4487 23.2687 5.19952 23.6636C5.7026 22.8662 7.0917 21.3687 10.4764 21.9975C10.5863 22.0247 10.7387 22.0257 10.9332 21.9933C11.3457 21.9248 11.8617 21.7216 12.3643 21.475C12.8625 21.2305 13.3279 20.9532 13.6338 20.7512C13.3897 21.2237 13.0741 21.6988 12.5939 21.9344C12.2348 22.1106 11.849 22.2758 11.4829 22.3872C12.3458 23.1782 13.4235 23.6668 14.4631 23.9537C15.6341 24.2768 16.7362 24.3382 17.3832 24.2973C17.2319 24.3069 17.0475 24.328 16.8391 24.3519C16.0794 24.439 15.0002 24.5628 14.036 24.2967C13.2823 24.0888 12.6107 23.8366 11.9704 23.4229C11.9985 23.5586 12.0106 23.6975 12.0061 23.8367L12.0031 23.9326C11.9799 24.6605 11.603 25.3325 10.9914 25.7364L10.8883 25.8045C10.5759 26.0108 10.2207 26.1453 9.84893 26.1979L9.18264 26.2922C8.80253 26.346 8.41483 26.2999 8.05833 26.1587L7.94224 26.1127C7.53334 25.9506 7.19607 25.6496 6.99089 25.2636C6.75604 24.8217 6.71304 24.3041 6.87182 23.8302ZM28.4621 28.931L28.6393 28.931C28.9754 28.931 29.307 29.0085 29.6076 29.1575L30.3487 29.5245C30.5834 29.6407 30.7982 29.7943 30.9836 29.9782C31.5767 30.5661 31.8092 31.3978 31.6465 32.1757C32.1751 31.7763 32.7302 31.4291 33.4417 31.2176C32.8393 31.6819 32.3754 32.1517 31.931 32.6018C31.1406 33.4024 30.4122 34.1402 29.076 34.6716C28.8695 34.7582 28.6574 34.8325 28.4408 34.8938L28.4255 34.8981C28.3161 34.9313 28.2032 34.9633 28.0865 34.994L27.7495 35.0894L27.6971 35.1024C27.6012 35.1262 27.5055 35.1417 27.4105 35.1496C26.9326 35.2449 26.3983 35.323 25.7959 35.3814C23.54 36.5076 21.4335 37.6315 20.1134 38.3623C20.5774 38.1054 21.0956 37.7254 21.6751 37.3005C22.5121 36.6867 23.4771 35.9791 24.5921 35.4127C24.3108 35.4347 23.9672 35.4273 23.6256 35.42L23.625 35.42C23.4552 35.4163 23.2859 35.4127 23.1251 35.4127C22.8662 35.4127 21.6207 35.4506 21.1998 35.5882C21.6414 35.4439 22.3899 35.2379 23.2124 35.0845C24.0046 34.9368 24.8837 34.8343 25.6284 34.891C25.8398 34.8757 26.0427 34.8559 26.2377 34.832C25.829 34.5461 25.5409 34.0912 25.4913 33.5503C25.4447 33.0429 25.4933 32.5312 25.6346 32.0413L25.6523 31.9799C25.8411 31.3253 26.1593 30.7143 26.5884 30.1825L27.0587 29.5996C27.3997 29.1771 27.916 28.9311 28.4621 28.931ZM6.04549 15.5918L5.99807 15.7333C5.93882 15.9102 5.95486 16.1033 6.0425 16.2682C6.11907 16.4123 6.24492 16.5246 6.39751 16.5851L6.44083 16.6022C6.57386 16.6549 6.71854 16.6721 6.86038 16.652L7.10901 16.6169C7.24774 16.5972 7.38027 16.5471 7.49687 16.47L7.53532 16.4447C7.76357 16.2939 7.9042 16.0432 7.91286 15.7715L7.91358 15.7489C7.91669 15.6514 7.90001 15.5542 7.86453 15.4632C7.76689 15.2128 7.53821 15.0358 7.2693 15.0025L7.13002 14.9853C7.00037 14.9692 6.86878 14.9793 6.74314 15.0148L6.61473 15.0512C6.38722 15.1155 6.19744 15.2716 6.09163 15.4812C6.0736 15.5169 6.05818 15.5539 6.04549 15.5918ZM19.4687 12.3079C19.4381 12.7265 18.7949 13.7335 18.1569 14.0969C17.4735 14.4863 16.183 14.4487 14.0361 14.0436C16.3647 14.8126 17.5761 15.0192 18.4149 14.5414C19.267 14.0559 19.4696 13.5309 19.4696 12.7619L19.4687 12.3079ZM19.4687 12.3079C19.4703 12.2868 19.4702 12.2672 19.4686 12.2493L19.4687 12.3079ZM20.0145 29.2452C20.3451 29.0331 20.6276 28.7546 20.8699 28.4471C18.7177 29.9977 16.9093 29.0877 16.289 28.4731C16.5104 28.9324 16.7815 29.3856 17.2008 29.6796C17.7772 30.0837 18.5322 30.1961 20.0145 29.2452ZM5.15888 29.9648C5.13147 30.3639 5.1132 30.63 5.1492 30.9169C5.15768 30.9845 5.16639 31.0539 5.17675 31.1257C5.21087 31.3623 5.26471 31.619 5.40522 31.8881C5.54602 32.1578 5.76576 32.4249 6.11217 32.6995C6.71196 33.1748 7.42002 33.3468 8.05776 33.5016L8.05834 33.5018L8.0589 33.5019C8.16672 33.5281 8.27253 33.5538 8.37546 33.5804C8.53543 33.6217 8.69471 33.6552 8.85446 33.6888C9.42244 33.8083 9.99658 33.9291 10.629 34.4078C10.0566 33.5573 9.18764 33.294 8.42858 33.0978C8.31244 33.0678 8.19793 33.0397 8.08519 33.012C7.44497 32.8548 6.93888 32.6981 6.43544 32.2991C6.135 32.061 5.96662 31.8475 5.86486 31.6526C5.76279 31.4571 5.71961 31.2652 5.68904 31.0532C5.68053 30.9943 5.67314 30.9331 5.66551 30.87C5.61874 30.4833 5.49756 30.1923 5.18709 29.5259C5.17777 29.6899 5.16783 29.8345 5.15888 29.9648ZM13.1628 28.3255C13.0683 28.2521 12.9737 28.1786 12.8785 28.1063C12.4305 27.7659 11.9051 27.4964 11.4486 27.6056C11.935 27.4892 12.3873 27.4669 12.8012 27.5806C13.4828 27.7679 13.8703 28.4365 14.1981 29.0574C13.8317 28.8451 13.4972 28.5852 13.1628 28.3255ZM16.7884 17.8595C16.3943 17.7021 16.0001 17.5445 15.5885 17.4415C16.0776 17.9477 16.6373 18.4833 17.3446 18.4755C17.7741 18.4708 18.2023 18.3249 18.6369 18.0792C18.2291 18.3098 17.6488 18.1955 17.1229 17.9919C17.0113 17.9487 16.9002 17.9042 16.789 17.8598L16.7884 17.8595ZM12.4836 12.2493C12.3192 12.575 12.0589 12.8102 11.7996 13.0446C11.5258 13.292 11.253 13.5385 11.095 13.8896C11.0407 14.0104 10.9778 14.162 10.9029 14.3523C10.9029 14.0912 10.8612 13.8408 10.8221 13.6058C10.8086 13.5252 10.7955 13.4462 10.7845 13.3693C10.6653 12.539 11.6371 12.2493 12.4836 12.2493ZM11.7752 36.6446C11.4494 36.6058 11.1577 36.5711 10.9311 36.2919C11.6514 35.8511 12.5859 35.6672 12.7489 36.4901C12.7926 36.7109 12.8552 36.952 13.0011 37.1861C12.6018 36.8881 12.3752 36.7591 12.2243 36.7198C12.0697 36.6797 11.9191 36.6617 11.7752 36.6446ZM20.6602 2.86724L20.6609 2.86483C20.6962 2.74327 20.7306 2.62438 20.7633 2.50876C20.3202 5.84104 22.2296 8.23345 23.3508 8.66066C19.1919 7.93359 20.0446 4.9913 20.6602 2.86724ZM23.8682 9.68598C23.1782 10.6259 22.5751 12.4423 23.8682 14.0436C24.8864 15.3045 25.6542 15.573 28.6353 15.3373C28.6941 15.3366 28.7442 15.3325 28.7843 15.3252C28.734 15.3294 28.6843 15.3334 28.6353 15.3373C27.9984 15.3443 26.3243 14.9387 24.9032 13.5309C23.2913 11.934 23.5662 10.455 23.8682 9.68598ZM36.2878 20.1955C33.4417 20.4518 28.7843 20.1955 29.5605 15.5816C29.672 15.7657 29.7782 15.9816 29.8944 16.2178C30.587 17.6258 31.6349 19.7565 36.2878 20.1955Z" fill="#B55119"/>
</svg>
